<svg width="100" height="100" viewBox="0 0 100 100" fill="none" xmlns="http://www.w3.org/2000/svg">
<g clip-path="url(#clip0)">
<path d="M50.6242 29.7448L72.6687 7.70036C74.0634 6.30563 76.3247 6.30563 77.7195 7.70036L93.0278 23.0087C94.4225 24.4034 94.4225 26.6647 93.0278 28.0594L71.8099 49.2773M48.804 72.2832L32.0809 89.0064C31.5543 89.5329 30.8763 89.8817 30.1418 90.004L11.1265 93.1685C9.18085 93.4923 7.34107 92.1775 7.01726 90.2318C6.94649 89.8066 6.95329 89.372 7.03735 88.9492L10.7009 70.5197C10.8386 69.8268 11.1788 69.1903 11.6784 68.6907L28.3712 51.9978L48.804 72.2832Z" stroke="white" stroke-width="7.14286" stroke-linecap="round" stroke-linejoin="round"/>
<path d="M66.3508 14.0182L79.7385 27.406L86.7099 34.3773" stroke="white" stroke-width="7.14286" stroke-linecap="round" stroke-linejoin="round"/>
<path d="M15.552 70.3356L30.3925 85.1761" stroke="white" stroke-width="7.14286" stroke-linecap="round" stroke-linejoin="round"/>
<path d="M27.5469 7.74914L91.208 71.4103C92.6028 72.805 92.6028 75.0663 91.208 76.4611L75.8997 91.7694C74.505 93.1641 72.2437 93.1641 70.849 91.7694L7.18779 28.1082C5.79306 26.7135 5.79306 24.4522 7.18779 23.0575L22.4961 7.74914C23.8908 6.35441 26.1522 6.35441 27.5469 7.74914Z" stroke="white" stroke-width="7.14286" stroke-linecap="round" stroke-linejoin="round"/>
<path d="M31.0024 14.5122L27.7146 17.8" stroke="white" stroke-width="7.14286" stroke-linecap="round" stroke-linejoin="round"/>
<path d="M38.2656 22.5182L32.4329 28.3509" stroke="white" stroke-width="7.14286" stroke-linecap="round" stroke-linejoin="round"/>
<path d="M46.2717 29.7814L42.9839 33.0692" stroke="white" stroke-width="7.14286" stroke-linecap="round" stroke-linejoin="round"/>
<path d="M53.5349 37.7876L47.7022 43.6203" stroke="white" stroke-width="7.14286" stroke-linecap="round" stroke-linejoin="round"/>
<path d="M61.541 45.0508L58.2532 48.3386" stroke="white" stroke-width="7.14286" stroke-linecap="round" stroke-linejoin="round"/>
<path d="M68.8042 53.0569L62.9715 58.8896" stroke="white" stroke-width="7.14286" stroke-linecap="round" stroke-linejoin="round"/>
<path d="M76.8103 60.32L73.5225 63.6079" stroke="white" stroke-width="7.14286" stroke-linecap="round" stroke-linejoin="round"/>
<path d="M84.0736 68.3262L78.2409 74.1589" stroke="white" stroke-width="7.14286" stroke-linecap="round" stroke-linejoin="round"/>
</g>
<defs>
<clipPath id="clip0">
<rect width="100" height="100" fill="white"/>
</clipPath>
</defs>
</svg>
